<mxfile host="www.draw.io" modified="2020-01-19T18:18:37.789Z" agent="Mozilla/5.0 (Windows NT 10.0; Win64; x64; rv:72.0) Gecko/20100101 Firefox/72.0" etag="CWEJ2qQgjhX4tf4yj315" version="12.5.5" type="github">
  <diagram id="C5RBs43oDa-KdzZeNtuy" name="Page-1">
    <mxGraphModel dx="1038" dy="552" grid="1" gridSize="10" guides="1" tooltips="1" connect="1" arrows="1" fold="1" page="1" pageScale="1" pageWidth="827" pageHeight="1169" math="0" shadow="0">
      <root>
        <mxCell id="WIyWlLk6GJQsqaUBKTNV-0"/>
        <mxCell id="WIyWlLk6GJQsqaUBKTNV-1" parent="WIyWlLk6GJQsqaUBKTNV-0"/>
        <mxCell id="t42_mlc4Qohbn9eGwXCT-39" style="edgeStyle=orthogonalEdgeStyle;rounded=0;orthogonalLoop=1;jettySize=auto;html=1;entryX=0.5;entryY=0;entryDx=0;entryDy=0;" parent="WIyWlLk6GJQsqaUBKTNV-1" source="t42_mlc4Qohbn9eGwXCT-0" target="t42_mlc4Qohbn9eGwXCT-35" edge="1">
          <mxGeometry relative="1" as="geometry"/>
        </mxCell>
        <mxCell id="t42_mlc4Qohbn9eGwXCT-0" value="START" style="rounded=1;whiteSpace=wrap;html=1;fillColor=#fff2cc;strokeColor=#d6b656;" parent="WIyWlLk6GJQsqaUBKTNV-1" vertex="1">
          <mxGeometry x="370" y="20" width="120" height="60" as="geometry"/>
        </mxCell>
        <mxCell id="t42_mlc4Qohbn9eGwXCT-13" style="edgeStyle=orthogonalEdgeStyle;rounded=0;orthogonalLoop=1;jettySize=auto;html=1;entryX=0.667;entryY=-0.033;entryDx=0;entryDy=0;entryPerimeter=0;" parent="WIyWlLk6GJQsqaUBKTNV-1" source="t42_mlc4Qohbn9eGwXCT-1" target="t42_mlc4Qohbn9eGwXCT-3" edge="1">
          <mxGeometry relative="1" as="geometry">
            <Array as="points">
              <mxPoint x="230" y="230"/>
              <mxPoint x="230" y="230"/>
            </Array>
          </mxGeometry>
        </mxCell>
        <mxCell id="t42_mlc4Qohbn9eGwXCT-1" value="Sensor temperatury" style="shape=parallelogram;perimeter=parallelogramPerimeter;whiteSpace=wrap;html=1;fillColor=#d5e8d4;strokeColor=#82b366;" parent="WIyWlLk6GJQsqaUBKTNV-1" vertex="1">
          <mxGeometry x="130" y="170" width="190" height="60" as="geometry"/>
        </mxCell>
        <mxCell id="t42_mlc4Qohbn9eGwXCT-60" style="edgeStyle=orthogonalEdgeStyle;rounded=0;orthogonalLoop=1;jettySize=auto;html=1;" parent="WIyWlLk6GJQsqaUBKTNV-1" source="t42_mlc4Qohbn9eGwXCT-2" target="t42_mlc4Qohbn9eGwXCT-4" edge="1">
          <mxGeometry relative="1" as="geometry"/>
        </mxCell>
        <mxCell id="t42_mlc4Qohbn9eGwXCT-2" value="&lt;div&gt;Sensor poziomu &lt;br&gt;natężenia dźwięku&lt;/div&gt;" style="shape=parallelogram;perimeter=parallelogramPerimeter;whiteSpace=wrap;html=1;fillColor=#d5e8d4;strokeColor=#82b366;" parent="WIyWlLk6GJQsqaUBKTNV-1" vertex="1">
          <mxGeometry x="600" y="160" width="190" height="60" as="geometry"/>
        </mxCell>
        <mxCell id="t42_mlc4Qohbn9eGwXCT-15" style="edgeStyle=orthogonalEdgeStyle;rounded=0;orthogonalLoop=1;jettySize=auto;html=1;exitX=0.5;exitY=1;exitDx=0;exitDy=0;entryX=0.531;entryY=-0.022;entryDx=0;entryDy=0;entryPerimeter=0;" parent="WIyWlLk6GJQsqaUBKTNV-1" source="t42_mlc4Qohbn9eGwXCT-3" target="t42_mlc4Qohbn9eGwXCT-8" edge="1">
          <mxGeometry relative="1" as="geometry">
            <mxPoint x="210.20689655172418" y="360" as="targetPoint"/>
          </mxGeometry>
        </mxCell>
        <mxCell id="t42_mlc4Qohbn9eGwXCT-3" value="Podłączenie do płytki Arduino" style="rounded=0;whiteSpace=wrap;html=1;fillColor=#f8cecc;strokeColor=#b85450;" parent="WIyWlLk6GJQsqaUBKTNV-1" vertex="1">
          <mxGeometry x="150" y="250" width="120" height="60" as="geometry"/>
        </mxCell>
        <mxCell id="t42_mlc4Qohbn9eGwXCT-17" style="edgeStyle=orthogonalEdgeStyle;rounded=0;orthogonalLoop=1;jettySize=auto;html=1;entryX=0.473;entryY=-0.022;entryDx=0;entryDy=0;entryPerimeter=0;" parent="WIyWlLk6GJQsqaUBKTNV-1" source="t42_mlc4Qohbn9eGwXCT-4" target="t42_mlc4Qohbn9eGwXCT-9" edge="1">
          <mxGeometry relative="1" as="geometry"/>
        </mxCell>
        <mxCell id="t42_mlc4Qohbn9eGwXCT-4" value="Podłączenie do płytki Arduino" style="rounded=0;whiteSpace=wrap;html=1;fillColor=#f8cecc;strokeColor=#b85450;" parent="WIyWlLk6GJQsqaUBKTNV-1" vertex="1">
          <mxGeometry x="635" y="270" width="120" height="60" as="geometry"/>
        </mxCell>
        <mxCell id="t42_mlc4Qohbn9eGwXCT-18" style="edgeStyle=orthogonalEdgeStyle;rounded=0;orthogonalLoop=1;jettySize=auto;html=1;entryX=0.5;entryY=0;entryDx=0;entryDy=0;" parent="WIyWlLk6GJQsqaUBKTNV-1" source="t42_mlc4Qohbn9eGwXCT-8" target="t42_mlc4Qohbn9eGwXCT-10" edge="1">
          <mxGeometry relative="1" as="geometry"/>
        </mxCell>
        <mxCell id="t42_mlc4Qohbn9eGwXCT-8" value="Pomiar napięcia [V]" style="shape=parallelogram;perimeter=parallelogramPerimeter;whiteSpace=wrap;html=1;fillColor=#d5e8d4;strokeColor=#82b366;" parent="WIyWlLk6GJQsqaUBKTNV-1" vertex="1">
          <mxGeometry x="110" y="350" width="190" height="60" as="geometry"/>
        </mxCell>
        <mxCell id="t42_mlc4Qohbn9eGwXCT-27" style="edgeStyle=orthogonalEdgeStyle;rounded=0;orthogonalLoop=1;jettySize=auto;html=1;entryX=0.185;entryY=-0.033;entryDx=0;entryDy=0;entryPerimeter=0;" parent="WIyWlLk6GJQsqaUBKTNV-1" source="t42_mlc4Qohbn9eGwXCT-9" target="t42_mlc4Qohbn9eGwXCT-21" edge="1">
          <mxGeometry relative="1" as="geometry">
            <mxPoint x="505" y="490" as="targetPoint"/>
          </mxGeometry>
        </mxCell>
        <mxCell id="t42_mlc4Qohbn9eGwXCT-9" value="Pomiar napięcia [V]" style="shape=parallelogram;perimeter=parallelogramPerimeter;whiteSpace=wrap;html=1;fillColor=#d5e8d4;strokeColor=#82b366;" parent="WIyWlLk6GJQsqaUBKTNV-1" vertex="1">
          <mxGeometry x="480" y="370" width="190" height="60" as="geometry"/>
        </mxCell>
        <mxCell id="t42_mlc4Qohbn9eGwXCT-19" value="NIE" style="edgeStyle=orthogonalEdgeStyle;rounded=0;orthogonalLoop=1;jettySize=auto;html=1;" parent="WIyWlLk6GJQsqaUBKTNV-1" source="t42_mlc4Qohbn9eGwXCT-10" edge="1">
          <mxGeometry relative="1" as="geometry">
            <mxPoint x="210" y="330" as="targetPoint"/>
            <Array as="points">
              <mxPoint x="70" y="540"/>
              <mxPoint x="70" y="330"/>
            </Array>
            <mxPoint as="offset"/>
          </mxGeometry>
        </mxCell>
        <mxCell id="t42_mlc4Qohbn9eGwXCT-23" value="TAK" style="edgeStyle=orthogonalEdgeStyle;rounded=0;orthogonalLoop=1;jettySize=auto;html=1;exitX=1;exitY=0.5;exitDx=0;exitDy=0;entryX=0;entryY=0.5;entryDx=0;entryDy=0;" parent="WIyWlLk6GJQsqaUBKTNV-1" source="t42_mlc4Qohbn9eGwXCT-10" target="t42_mlc4Qohbn9eGwXCT-9" edge="1">
          <mxGeometry relative="1" as="geometry">
            <mxPoint x="500" y="340" as="targetPoint"/>
            <Array as="points">
              <mxPoint x="380" y="400"/>
            </Array>
          </mxGeometry>
        </mxCell>
        <mxCell id="t42_mlc4Qohbn9eGwXCT-10" value="Czy pomiar temperatury został wykonany poprawnie?" style="rhombus;whiteSpace=wrap;html=1;fillColor=#fff2cc;strokeColor=#d6b656;" parent="WIyWlLk6GJQsqaUBKTNV-1" vertex="1">
          <mxGeometry x="190" y="500" width="190" height="80" as="geometry"/>
        </mxCell>
        <mxCell id="t42_mlc4Qohbn9eGwXCT-66" style="edgeStyle=orthogonalEdgeStyle;rounded=0;orthogonalLoop=1;jettySize=auto;html=1;entryX=0.819;entryY=0.026;entryDx=0;entryDy=0;entryPerimeter=0;" parent="WIyWlLk6GJQsqaUBKTNV-1" source="t42_mlc4Qohbn9eGwXCT-21" target="t42_mlc4Qohbn9eGwXCT-31" edge="1">
          <mxGeometry relative="1" as="geometry"/>
        </mxCell>
        <mxCell id="t42_mlc4Qohbn9eGwXCT-21" value="Zapisz pomiar temperatury, wilgotności oraz poziomu natężenia dźwięku" style="rounded=0;whiteSpace=wrap;html=1;fillColor=#f8cecc;strokeColor=#b85450;" parent="WIyWlLk6GJQsqaUBKTNV-1" vertex="1">
          <mxGeometry x="435" y="510" width="130" height="90" as="geometry"/>
        </mxCell>
        <mxCell id="t42_mlc4Qohbn9eGwXCT-45" style="edgeStyle=orthogonalEdgeStyle;rounded=0;orthogonalLoop=1;jettySize=auto;html=1;exitX=0.5;exitY=1;exitDx=0;exitDy=0;entryX=0.5;entryY=0;entryDx=0;entryDy=0;" parent="WIyWlLk6GJQsqaUBKTNV-1" source="t42_mlc4Qohbn9eGwXCT-29" target="t42_mlc4Qohbn9eGwXCT-33" edge="1">
          <mxGeometry relative="1" as="geometry">
            <Array as="points">
              <mxPoint x="540" y="830"/>
              <mxPoint x="410" y="830"/>
            </Array>
          </mxGeometry>
        </mxCell>
        <mxCell id="t42_mlc4Qohbn9eGwXCT-46" style="edgeStyle=orthogonalEdgeStyle;rounded=0;orthogonalLoop=1;jettySize=auto;html=1;" parent="WIyWlLk6GJQsqaUBKTNV-1" source="t42_mlc4Qohbn9eGwXCT-29" target="t42_mlc4Qohbn9eGwXCT-34" edge="1">
          <mxGeometry relative="1" as="geometry"/>
        </mxCell>
        <mxCell id="t42_mlc4Qohbn9eGwXCT-29" value="Przelicz wartości z napięcia na odpowiednie jednostki mierzonych wielkości" style="rounded=0;whiteSpace=wrap;html=1;fillColor=#f8cecc;strokeColor=#b85450;" parent="WIyWlLk6GJQsqaUBKTNV-1" vertex="1">
          <mxGeometry x="470" y="720" width="140" height="100" as="geometry"/>
        </mxCell>
        <mxCell id="t42_mlc4Qohbn9eGwXCT-43" style="edgeStyle=orthogonalEdgeStyle;rounded=0;orthogonalLoop=1;jettySize=auto;html=1;" parent="WIyWlLk6GJQsqaUBKTNV-1" source="t42_mlc4Qohbn9eGwXCT-31" target="t42_mlc4Qohbn9eGwXCT-29" edge="1">
          <mxGeometry relative="1" as="geometry">
            <Array as="points">
              <mxPoint x="430" y="710"/>
              <mxPoint x="540" y="710"/>
            </Array>
          </mxGeometry>
        </mxCell>
        <mxCell id="t42_mlc4Qohbn9eGwXCT-44" style="edgeStyle=orthogonalEdgeStyle;rounded=0;orthogonalLoop=1;jettySize=auto;html=1;entryX=0.75;entryY=0;entryDx=0;entryDy=0;" parent="WIyWlLk6GJQsqaUBKTNV-1" source="t42_mlc4Qohbn9eGwXCT-31" target="t42_mlc4Qohbn9eGwXCT-41" edge="1">
          <mxGeometry relative="1" as="geometry"/>
        </mxCell>
        <mxCell id="t42_mlc4Qohbn9eGwXCT-31" value="Zapisane wartości napięcia [V]" style="shape=parallelogram;perimeter=parallelogramPerimeter;whiteSpace=wrap;html=1;fillColor=#d5e8d4;strokeColor=#82b366;" parent="WIyWlLk6GJQsqaUBKTNV-1" vertex="1">
          <mxGeometry x="320" y="640" width="220" height="60" as="geometry"/>
        </mxCell>
        <mxCell id="t42_mlc4Qohbn9eGwXCT-52" style="edgeStyle=orthogonalEdgeStyle;rounded=0;orthogonalLoop=1;jettySize=auto;html=1;entryX=0.636;entryY=-0.02;entryDx=0;entryDy=0;entryPerimeter=0;" parent="WIyWlLk6GJQsqaUBKTNV-1" source="t42_mlc4Qohbn9eGwXCT-33" target="t42_mlc4Qohbn9eGwXCT-42" edge="1">
          <mxGeometry relative="1" as="geometry">
            <Array as="points">
              <mxPoint x="410" y="920"/>
              <mxPoint x="439" y="920"/>
            </Array>
          </mxGeometry>
        </mxCell>
        <mxCell id="t42_mlc4Qohbn9eGwXCT-33" value="Wilgotność [%]" style="shape=parallelogram;perimeter=parallelogramPerimeter;whiteSpace=wrap;html=1;fillColor=#d5e8d4;strokeColor=#82b366;" parent="WIyWlLk6GJQsqaUBKTNV-1" vertex="1">
          <mxGeometry x="330" y="850" width="160" height="60" as="geometry"/>
        </mxCell>
        <mxCell id="t42_mlc4Qohbn9eGwXCT-51" style="edgeStyle=orthogonalEdgeStyle;rounded=0;orthogonalLoop=1;jettySize=auto;html=1;entryX=0.75;entryY=0;entryDx=0;entryDy=0;" parent="WIyWlLk6GJQsqaUBKTNV-1" source="t42_mlc4Qohbn9eGwXCT-34" target="t42_mlc4Qohbn9eGwXCT-42" edge="1">
          <mxGeometry relative="1" as="geometry">
            <Array as="points">
              <mxPoint x="635" y="930"/>
              <mxPoint x="455" y="930"/>
            </Array>
          </mxGeometry>
        </mxCell>
        <mxCell id="t42_mlc4Qohbn9eGwXCT-34" value="Temperatura [st.C]" style="shape=parallelogram;perimeter=parallelogramPerimeter;whiteSpace=wrap;html=1;fillColor=#d5e8d4;strokeColor=#82b366;" parent="WIyWlLk6GJQsqaUBKTNV-1" vertex="1">
          <mxGeometry x="555" y="860" width="160" height="60" as="geometry"/>
        </mxCell>
        <mxCell id="t42_mlc4Qohbn9eGwXCT-36" style="edgeStyle=orthogonalEdgeStyle;rounded=0;orthogonalLoop=1;jettySize=auto;html=1;entryX=0.5;entryY=0;entryDx=0;entryDy=0;" parent="WIyWlLk6GJQsqaUBKTNV-1" source="t42_mlc4Qohbn9eGwXCT-35" target="t42_mlc4Qohbn9eGwXCT-1" edge="1">
          <mxGeometry relative="1" as="geometry"/>
        </mxCell>
        <mxCell id="t42_mlc4Qohbn9eGwXCT-37" style="edgeStyle=orthogonalEdgeStyle;rounded=0;orthogonalLoop=1;jettySize=auto;html=1;entryX=0.674;entryY=0;entryDx=0;entryDy=0;entryPerimeter=0;" parent="WIyWlLk6GJQsqaUBKTNV-1" source="t42_mlc4Qohbn9eGwXCT-35" target="t42_mlc4Qohbn9eGwXCT-2" edge="1">
          <mxGeometry relative="1" as="geometry"/>
        </mxCell>
        <mxCell id="t42_mlc4Qohbn9eGwXCT-61" style="edgeStyle=orthogonalEdgeStyle;rounded=0;orthogonalLoop=1;jettySize=auto;html=1;" parent="WIyWlLk6GJQsqaUBKTNV-1" source="t42_mlc4Qohbn9eGwXCT-35" target="t42_mlc4Qohbn9eGwXCT-59" edge="1">
          <mxGeometry relative="1" as="geometry"/>
        </mxCell>
        <mxCell id="t42_mlc4Qohbn9eGwXCT-35" value="Ustaw częstotliwość próbkowania" style="rounded=0;whiteSpace=wrap;html=1;fillColor=#f8cecc;strokeColor=#b85450;" parent="WIyWlLk6GJQsqaUBKTNV-1" vertex="1">
          <mxGeometry x="370" y="100" width="120" height="60" as="geometry"/>
        </mxCell>
        <mxCell id="t42_mlc4Qohbn9eGwXCT-50" style="edgeStyle=orthogonalEdgeStyle;rounded=0;orthogonalLoop=1;jettySize=auto;html=1;entryX=0.5;entryY=0;entryDx=0;entryDy=0;" parent="WIyWlLk6GJQsqaUBKTNV-1" source="t42_mlc4Qohbn9eGwXCT-41" target="t42_mlc4Qohbn9eGwXCT-42" edge="1">
          <mxGeometry relative="1" as="geometry">
            <Array as="points">
              <mxPoint x="180" y="930"/>
              <mxPoint x="420" y="930"/>
            </Array>
          </mxGeometry>
        </mxCell>
        <mxCell id="t42_mlc4Qohbn9eGwXCT-41" value="&lt;div&gt;Poziom ciśnienia&lt;/div&gt;&lt;div&gt; akustyczego [V]&lt;/div&gt;" style="shape=parallelogram;perimeter=parallelogramPerimeter;whiteSpace=wrap;html=1;fillColor=#d5e8d4;strokeColor=#82b366;" parent="WIyWlLk6GJQsqaUBKTNV-1" vertex="1">
          <mxGeometry x="100" y="850" width="160" height="60" as="geometry"/>
        </mxCell>
        <mxCell id="t42_mlc4Qohbn9eGwXCT-54" style="edgeStyle=orthogonalEdgeStyle;rounded=0;orthogonalLoop=1;jettySize=auto;html=1;entryX=1;entryY=0.5;entryDx=0;entryDy=0;" parent="WIyWlLk6GJQsqaUBKTNV-1" source="t42_mlc4Qohbn9eGwXCT-42" target="t42_mlc4Qohbn9eGwXCT-53" edge="1">
          <mxGeometry relative="1" as="geometry">
            <mxPoint x="270" y="1050" as="targetPoint"/>
          </mxGeometry>
        </mxCell>
        <mxCell id="t42_mlc4Qohbn9eGwXCT-42" value="Zapisz do pliku .txt" style="rounded=0;whiteSpace=wrap;html=1;fillColor=#f8cecc;strokeColor=#b85450;" parent="WIyWlLk6GJQsqaUBKTNV-1" vertex="1">
          <mxGeometry x="350" y="960" width="140" height="50" as="geometry"/>
        </mxCell>
        <mxCell id="t42_mlc4Qohbn9eGwXCT-56" style="edgeStyle=orthogonalEdgeStyle;rounded=0;orthogonalLoop=1;jettySize=auto;html=1;" parent="WIyWlLk6GJQsqaUBKTNV-1" source="t42_mlc4Qohbn9eGwXCT-53" target="t42_mlc4Qohbn9eGwXCT-55" edge="1">
          <mxGeometry relative="1" as="geometry"/>
        </mxCell>
        <mxCell id="t42_mlc4Qohbn9eGwXCT-53" value="Plik .txt z pomiarami" style="shape=parallelogram;perimeter=parallelogramPerimeter;whiteSpace=wrap;html=1;fillColor=#d5e8d4;strokeColor=#82b366;" parent="WIyWlLk6GJQsqaUBKTNV-1" vertex="1">
          <mxGeometry x="115" y="955" width="190" height="60" as="geometry"/>
        </mxCell>
        <mxCell id="t42_mlc4Qohbn9eGwXCT-55" value="STOP" style="rounded=1;whiteSpace=wrap;html=1;fillColor=#ffe6cc;strokeColor=#d79b00;" parent="WIyWlLk6GJQsqaUBKTNV-1" vertex="1">
          <mxGeometry x="150" y="1060" width="120" height="60" as="geometry"/>
        </mxCell>
        <mxCell id="t42_mlc4Qohbn9eGwXCT-65" style="edgeStyle=orthogonalEdgeStyle;rounded=0;orthogonalLoop=1;jettySize=auto;html=1;entryX=0.25;entryY=0;entryDx=0;entryDy=0;" parent="WIyWlLk6GJQsqaUBKTNV-1" source="t42_mlc4Qohbn9eGwXCT-59" target="t42_mlc4Qohbn9eGwXCT-62" edge="1">
          <mxGeometry relative="1" as="geometry"/>
        </mxCell>
        <mxCell id="t42_mlc4Qohbn9eGwXCT-59" value="&lt;div&gt;Sensor wilgotności&lt;br&gt;&lt;/div&gt;" style="shape=parallelogram;perimeter=parallelogramPerimeter;whiteSpace=wrap;html=1;fillColor=#d5e8d4;strokeColor=#82b366;" parent="WIyWlLk6GJQsqaUBKTNV-1" vertex="1">
          <mxGeometry x="335" y="190" width="190" height="50" as="geometry"/>
        </mxCell>
        <mxCell id="t42_mlc4Qohbn9eGwXCT-64" style="edgeStyle=orthogonalEdgeStyle;rounded=0;orthogonalLoop=1;jettySize=auto;html=1;entryX=0.25;entryY=0;entryDx=0;entryDy=0;" parent="WIyWlLk6GJQsqaUBKTNV-1" source="t42_mlc4Qohbn9eGwXCT-62" target="t42_mlc4Qohbn9eGwXCT-9" edge="1">
          <mxGeometry relative="1" as="geometry"/>
        </mxCell>
        <mxCell id="t42_mlc4Qohbn9eGwXCT-62" value="Podłączenie do płytki Arduino" style="rounded=0;whiteSpace=wrap;html=1;fillColor=#f8cecc;strokeColor=#b85450;" parent="WIyWlLk6GJQsqaUBKTNV-1" vertex="1">
          <mxGeometry x="400" y="270" width="120" height="60" as="geometry"/>
        </mxCell>
      </root>
    </mxGraphModel>
  </diagram>
</mxfile>
